<?xml version="1.0" encoding="UTF-8"?>
<svg width="360px" height="360px" viewBox="0 0 360 360" version="1.1" xmlns="http://www.w3.org/2000/svg" xmlns:xlink="http://www.w3.org/1999/xlink">
    <!-- Generator: Sketch 58 (84663) - https://sketch.com -->
    <title>Artboard Copy 2</title>
    <desc>Created with Sketch.</desc>
    <g id="Artboard-Copy-2" stroke="none" stroke-width="1" fill="none" fill-rule="evenodd">
        <path d="M171.429768,300.0275 C173.434627,302.00575 176.056365,303 178.678103,303 C181.279278,303 183.890735,302.016 185.885313,300.05825 L340.927709,147.98925 C344.670112,144.31975 345.04024,138.426 341.78106,134.326 L283.763537,61.2025 C281.820366,58.7425 278.859344,57.3075 275.713258,57.3075 L76.3172207,57 C76.3172207,57 76.3069394,57 76.3069394,57 C72.9243831,57 69.7577347,58.6605 67.845408,61.428 L16.8191868,135.187 C13.9918221,139.2665 14.5058884,144.79125 18.0426646,148.2865 L171.429768,300.0275 Z M181.119377,79.0103592 L235,141 L119,141 L176.630181,79 L181.119377,79.0103592 Z M178.149862,278 L176.47446,276.340638 L119,149 L234,149 L179.161233,277.016675 L178.149862,278 Z M244.479016,149 L308,149 L198,258 L244.479016,149 Z M241.004929,133 L194,79 L264,79.102176 L241.004929,133 Z M110.11391,133 L85,79 L162,79.1116751 L110.11391,133 Z M157,257 L48,149 L108.049824,149 L157,257 Z M320,138 L251,138 L275.286184,82 L320,138 Z M77.6444159,82 L103,138 L39,138 L77.6444159,82 Z M171.429768,300.0275 C173.434627,302.00575 176.056365,303 178.678103,303 C181.279278,303 183.890735,302.016 185.885313,300.05825 L340.927709,147.98925 C344.670112,144.31975 345.04024,138.426 341.78106,134.326 L283.763537,61.2025 C281.820366,58.7425 278.859344,57.3075 275.713258,57.3075 L76.3172207,57 C76.3172207,57 76.3069394,57 76.3069394,57 C72.9243831,57 69.7577347,58.6605 67.845408,61.428 L16.8191868,135.187 C13.9918221,139.2665 14.5058884,144.79125 18.0426646,148.2865 L171.429768,300.0275 Z M181.119377,79.0103592 L235,141 L119,141 L176.630181,79 L181.119377,79.0103592 Z M178.149862,278 L176.47446,276.340638 L119,149 L234,149 L179.161233,277.016675 L178.149862,278 Z M244.479016,149 L308,149 L198,258 L244.479016,149 Z M241.004929,133 L194,79 L264,79.102176 L241.004929,133 Z M110.11391,133 L85,79 L162,79.1116751 L110.11391,133 Z M157,257 L48,149 L108.049824,149 L157,257 Z M320,138 L251,138 L275.286184,82 L320,138 Z M77.6444159,82 L103,138 L39,138 L77.6444159,82 Z" id="Diamond" fill="#18191A" fill-rule="nonzero"></path>
    </g>
</svg>